<svg width="40" height="40" viewBox="0 0 40 40" fill="none" xmlns="http://www.w3.org/2000/svg">
<path d="M28.3001 11.87C27.8601 11.43 27.19 11.3 26.61 11.55L9.6701 18.95C9.1001 19.2 8.74007 19.76 8.76007 20.38C8.77007 21 9.16005 21.55 9.74005 21.77L16.0501 24.2L18.45 30.43C18.83 31.41 19.6501 31.49 19.9101 31.49C19.9101 31.49 19.9101 31.49 19.9201 31.49C20.5301 31.49 21.08 31.13 21.32 30.57L28.6501 13.55C28.8701 12.98 28.7401 12.32 28.3001 11.87ZM19.98 25.93C19.51 24.72 19.0201 23.43 18.6501 22.48C18.4901 22.08 18.1801 21.76 17.7701 21.6L14.3001 20.26L24.2901 15.89L19.98 25.93Z" fill="#F15A24"/>
<path d="M33.9399 6.31C30.2499 2.62 25.34 0.590027 20.13 0.590027C14.92 0.590027 10.0099 2.62 6.31995 6.31C2.62995 10 0.599976 14.91 0.599976 20.12C0.599976 25.34 2.62995 30.24 6.31995 33.93C10.0099 37.62 14.92 39.65 20.13 39.65C23.7 39.65 27.2 38.68 30.24 36.83C30.96 36.39 31.19 35.45 30.75 34.73C30.31 34.01 29.37 33.78 28.65 34.22C26.09 35.77 23.14 36.59 20.12 36.59C11.03 36.59 3.64001 29.2 3.64001 20.11C3.64001 11.02 11.03 3.63 20.12 3.63C29.21 3.63 36.6 11.02 36.6 20.11C36.6 23.36 35.6301 26.52 33.8 29.26C33.33 29.96 33.52 30.91 34.22 31.38C34.92 31.85 35.87 31.66 36.34 30.96C38.51 27.72 39.65 23.97 39.65 20.11C39.66 14.91 37.6299 10 33.9399 6.31Z" fill="#F15A24"/>
</svg>
