<svg width="40" height="40" viewBox="0 0 40 40" fill="none" xmlns="http://www.w3.org/2000/svg">
<path d="M25.1099 0.5C18.5799 0.5 13.01 4.72998 11.02 10.6C5.14996 12.6 0.919922 18.16 0.919922 24.69C0.919922 32.9 7.59993 39.57 15.7999 39.57C22.3299 39.57 27.9 35.34 29.89 29.47C30.6 29.23 31.3 28.93 31.96 28.59C33.99 27.53 35.7799 25.99 37.1299 24.14C37.6299 23.46 37.4799 22.5 36.7999 22.01C36.1199 21.51 35.1599 21.66 34.6699 22.34C33.5999 23.81 32.2099 25 30.6299 25.83C30.6599 25.45 30.6699 25.07 30.6699 24.69C30.6699 16.48 23.9899 9.81 15.7899 9.81C15.3999 9.81 15.02 9.81998 14.64 9.84998C16.63 6.10998 20.5699 3.54999 25.0999 3.54999C31.6199 3.54999 36.9299 8.86 36.9299 15.38C36.9299 16.22 37.61 16.91 38.46 16.91C39.31 16.91 39.9899 16.23 39.9899 15.38C39.9899 7.18001 33.3199 0.5 25.1099 0.5ZM15.7999 36.52C9.27993 36.52 3.96991 31.21 3.96991 24.69C3.96991 20.16 6.52996 16.22 10.27 14.23C10.24 14.61 10.2299 14.99 10.2299 15.38C10.2299 23.59 16.9099 30.26 25.1099 30.26C25.4899 30.26 25.8799 30.25 26.2599 30.22C24.2699 33.96 20.3299 36.52 15.7999 36.52ZM27.6299 24.69C27.6299 25.47 27.5499 26.24 27.4099 26.98C26.6599 27.13 25.8899 27.21 25.1099 27.21C24.8099 27.21 24.51 27.2 24.21 27.18L27.59 23.8C27.62 24.09 27.6299 24.39 27.6299 24.69ZM26.78 20.29L20.71 26.36C19.74 25.97 18.8399 25.46 18.0099 24.84L25.2499 17.6C25.8799 18.42 26.39 19.32 26.78 20.29ZM23.1299 15.41L15.83 22.71C15.18 21.89 14.6399 20.98 14.2199 20.01L20.4199 13.81C21.3999 14.22 22.3099 14.76 23.1299 15.41ZM15.7999 12.86C16.1999 12.86 16.5999 12.88 16.9899 12.92L13.34 16.57C13.3 16.18 13.28 15.78 13.28 15.38C13.28 14.6 13.3599 13.83 13.4999 13.09C14.2499 12.94 15.0199 12.86 15.7999 12.86Z" fill="#F15A24"/>
</svg>
