<svg width="40" height="39" viewBox="0 0 40 39" fill="none" xmlns="http://www.w3.org/2000/svg">
<path d="M39.0201 15.01C38.4401 13.24 36.8701 12.09 35.0201 12.09H27.2101C26.6901 12.09 26.2601 11.79 26.1101 11.33L23.7001 3.84998C23.1301 2.07998 21.5601 0.940002 19.7001 0.940002C17.8401 0.940002 16.2701 2.07998 15.7001 3.84998L13.2901 11.32C13.1401 11.78 12.7101 12.08 12.1901 12.08H4.38011C2.53011 12.08 0.96011 13.23 0.38011 15C-0.19989 16.78 0.400109 18.64 1.91011 19.73L8.23012 24.32C8.64012 24.62 8.8001 25.13 8.6501 25.61L6.2401 33.04C5.6701 34.81 6.27009 36.65 7.77009 37.74C8.52009 38.29 9.3801 38.56 10.2401 38.56C11.1001 38.56 11.9601 38.29 12.7101 37.74L19.0301 33.15C19.4401 32.86 19.9801 32.85 20.3901 33.15L26.7101 37.74C28.2101 38.83 30.1501 38.83 31.6601 37.74C33.1601 36.65 33.7601 34.8 33.1901 33.04L31.5401 27.96C31.2801 27.16 30.4201 26.72 29.6201 26.98C28.8201 27.24 28.3801 28.1 28.6401 28.9L30.2901 33.98C30.5301 34.72 30.0301 35.16 29.8701 35.27C29.7101 35.39 29.1401 35.73 28.5101 35.27L22.1901 30.68C20.7101 29.61 18.7201 29.61 17.2401 30.68L10.9201 35.27C10.2901 35.73 9.7201 35.39 9.5601 35.27C9.4001 35.15 8.90012 34.72 9.14012 33.98L11.5501 26.55C12.1201 24.81 11.5001 22.92 10.0201 21.85L3.70012 17.26C3.07012 16.8 3.2201 16.13 3.2801 15.94C3.3401 15.75 3.60011 15.13 4.38011 15.13H12.1901C14.0301 15.13 15.6301 13.98 16.1901 12.26L18.6001 4.78998C18.8401 4.04998 19.5001 3.98999 19.7001 3.98999C19.9001 3.98999 20.5601 4.04998 20.8001 4.78998L23.2101 12.27C23.7701 13.99 25.3801 15.14 27.2101 15.14H35.0201C35.7901 15.14 36.0501 15.76 36.1201 15.95C36.1801 16.14 36.3401 16.81 35.7001 17.27L31.3901 20.4C30.7101 20.9 30.5601 21.85 31.0501 22.53C31.5501 23.21 32.5001 23.36 33.1801 22.87L37.4901 19.74C39.0001 18.65 39.6001 16.79 39.0201 15.01Z" fill="#F15A24"/>
</svg>
